<svg width="18" height="18" viewBox="0 0 18 18" fill="none" xmlns="http://www.w3.org/2000/svg">
<path fill-rule="evenodd" clip-rule="evenodd" d="M9 0C8.11286 0 6.63043 0.298125 5.23543 0.63C3.80829 0.9675 2.36958 1.36687 1.52358 1.60875C1.16987 1.71096 0.85628 1.8984 0.618842 2.14954C0.381405 2.40068 0.229748 2.70533 0.181293 3.0285C-0.584993 8.06513 1.19315 11.7979 3.35058 14.2673C4.26547 15.3236 5.35632 16.2538 6.58672 17.0269C7.083 17.334 7.54329 17.5691 7.93414 17.73C8.29414 17.8785 8.68114 18 9 18C9.31886 18 9.70457 17.8785 10.0659 17.73C10.5371 17.5296 10.9878 17.2944 11.4133 17.0269C12.6437 16.2538 13.7346 15.3236 14.6494 14.2673C16.8069 11.7979 18.585 8.06513 17.8187 3.0285C17.7703 2.70518 17.6187 2.40035 17.3813 2.14901C17.1439 1.89768 16.8302 1.71003 16.4764 1.60763C15.2483 1.25529 14.0107 0.928945 12.7646 0.628875C11.3696 0.29925 9.88714 0 9 0ZM9 5.625C9.45545 5.62441 9.89644 5.76487 10.2449 6.02152C10.5933 6.27817 10.8267 6.63443 10.9037 7.02721C10.9807 7.42 10.8963 7.82395 10.6656 8.16753C10.4348 8.5111 10.0725 8.77213 9.64286 8.90438L10.1379 11.1431C10.1559 11.2246 10.1531 11.3085 10.1297 11.3888C10.1063 11.4692 10.0629 11.5441 10.0025 11.608C9.94221 11.672 9.86646 11.7235 9.78072 11.7588C9.69497 11.7942 9.60136 11.8125 9.50657 11.8125H8.49343C8.39875 11.8124 8.30528 11.7939 8.2197 11.7585C8.13411 11.7231 8.05852 11.6715 7.99833 11.6076C7.93815 11.5436 7.89485 11.4688 7.87153 11.3886C7.84821 11.3083 7.84544 11.2245 7.86343 11.1431L8.35714 8.90438C7.9275 8.77213 7.56521 8.5111 7.33444 8.16753C7.10367 7.82395 7.01932 7.42 7.09632 7.02721C7.17331 6.63443 7.4067 6.27817 7.75513 6.02152C8.10356 5.76487 8.54455 5.62441 9 5.625Z" fill="black"/>
</svg>
