<svg width="20" height="15" viewBox="0 0 20 15" fill="none" xmlns="http://www.w3.org/2000/svg">
<path d="M18.29 4.29L14 8.58L12.7 7.29L11.29 8.71L13.99 11.41L19.71 5.71L18.29 4.29ZM2 4C1.98768 4.52866 2.08273 5.05431 2.27939 5.54518C2.47605 6.03605 2.77024 6.48193 3.14415 6.85585C3.51807 7.22976 3.96395 7.52395 4.45482 7.72061C4.94569 7.91727 5.47134 8.01231 6 8C6.52866 8.01231 7.05431 7.91727 7.54518 7.72061C8.03605 7.52395 8.48193 7.22976 8.85585 6.85585C9.22976 6.48193 9.52395 6.03605 9.72061 5.54518C9.91727 5.05431 10.0123 4.52866 10 4C10.0123 3.47135 9.91727 2.94569 9.72061 2.45482C9.52395 1.96395 9.22976 1.51807 8.85585 1.14415C8.48193 0.770235 8.03605 0.47605 7.54518 0.279391C7.05431 0.0827316 6.52866 -0.0123152 6 9.28994e-08C5.47134 -0.0123152 4.94569 0.0827316 4.45482 0.279391C3.96395 0.47605 3.51807 0.770235 3.14415 1.14415C2.77024 1.51807 2.47605 1.96395 2.27939 2.45482C2.08273 2.94569 1.98768 3.47135 2 4ZM8 4C8.01286 4.26605 7.96993 4.53185 7.87398 4.78032C7.77802 5.0288 7.63115 5.25446 7.4428 5.4428C7.25446 5.63115 7.0288 5.77802 6.78032 5.87398C6.53185 5.96993 6.26605 6.01286 6 6C5.73395 6.01286 5.46815 5.96993 5.21968 5.87398C4.9712 5.77802 4.74554 5.63115 4.5572 5.4428C4.36885 5.25446 4.22198 5.0288 4.12602 4.78032C4.03007 4.53185 3.98714 4.26605 4 4C3.98714 3.73395 4.03007 3.46815 4.12602 3.21968C4.22198 2.9712 4.36885 2.74554 4.5572 2.5572C4.74554 2.36885 4.9712 2.22198 5.21968 2.12602C5.46815 2.03007 5.73395 1.98714 6 2C6.26605 1.98714 6.53185 2.03007 6.78032 2.12602C7.0288 2.22198 7.25446 2.36885 7.4428 2.5572C7.63115 2.74554 7.77802 2.9712 7.87398 3.21968C7.96993 3.46815 8.01286 3.73395 8 4ZM2 14C2 13.2044 2.31607 12.4413 2.87868 11.8787C3.44129 11.3161 4.20435 11 5 11H7C7.79565 11 8.55871 11.3161 9.12132 11.8787C9.68393 12.4413 10 13.2044 10 14V15H12V14C12 13.3434 11.8707 12.6932 11.6194 12.0866C11.3681 11.48 10.9998 10.9288 10.5355 10.4645C10.0712 10.0002 9.52004 9.63188 8.91342 9.3806C8.30679 9.12933 7.65661 9 7 9H5C3.67392 9 2.40215 9.52678 1.46447 10.4645C0.526784 11.4021 0 12.6739 0 14V15H2V14Z" fill="black"/>
</svg>
