<svg width="192" height="177" viewBox="0 0 192 177" fill="none" xmlns="http://www.w3.org/2000/svg">
<path d="M80.8421 0L154.59 20.178C156.647 20.7404 158.445 21.8638 159.721 23.3843C160.997 24.9047 161.685 26.7427 161.684 28.6298V44.25H181.895C184.575 44.25 187.145 45.1824 189.04 46.8421C190.935 48.5018 192 50.7528 192 53.1V70.8H60.6316V53.1C60.6316 50.7528 61.6962 48.5018 63.5913 46.8421C65.4864 45.1824 68.0568 44.25 70.7368 44.25H141.474V35.1345L80.8421 18.5319L20.2105 35.1345V100.66C20.2091 106.078 21.6278 111.424 24.3574 116.287C27.0869 121.149 31.0545 125.398 35.9545 128.706L37.8644 129.909L80.8421 155.583L119.06 132.75H70.7368C68.0568 132.75 65.4864 131.818 63.5913 130.158C61.6962 128.498 60.6316 126.247 60.6316 123.9V88.5H192V123.9C192 126.247 190.935 128.498 189.04 130.158C187.145 131.818 184.575 132.75 181.895 132.75L149.356 132.759C145.445 137.272 140.696 141.255 135.208 144.529L80.8421 177L26.4758 144.538C18.316 139.666 11.6388 133.122 7.02457 125.475C2.41039 117.827 -0.00102288 109.309 3.25489e-07 100.66V28.6298C0.00121876 26.7442 0.690054 24.9082 1.9661 23.3895C3.24215 21.8708 5.0387 20.7488 7.09389 20.1869L80.8421 0Z" fill="#2AF509"/>
</svg>
