<svg width="94" height="24" viewBox="0 0 94 24" fill="none" xmlns="http://www.w3.org/2000/svg">
<path d="M3.83203 11.9883V18H0.316406V0.9375H6.97266C8.25391 0.9375 9.37891 1.17188 10.3477 1.64062C11.3242 2.10938 12.0742 2.77734 12.5977 3.64453C13.1211 4.50391 13.3828 5.48438 13.3828 6.58594C13.3828 8.25781 12.8086 9.57812 11.6602 10.5469C10.5195 11.5078 8.9375 11.9883 6.91406 11.9883H3.83203ZM3.83203 9.14062H6.97266C7.90234 9.14062 8.60938 8.92188 9.09375 8.48438C9.58594 8.04688 9.83203 7.42188 9.83203 6.60938C9.83203 5.77344 9.58594 5.09766 9.09375 4.58203C8.60156 4.06641 7.92188 3.80078 7.05469 3.78516H3.83203V9.14062ZM22.793 18C22.6367 17.6953 22.5234 17.3164 22.4531 16.8633C21.6328 17.7773 20.5664 18.2344 19.2539 18.2344C18.0117 18.2344 16.9805 17.875 16.1602 17.1562C15.3477 16.4375 14.9414 15.5312 14.9414 14.4375C14.9414 13.0938 15.4375 12.0625 16.4297 11.3438C17.4297 10.625 18.8711 10.2617 20.7539 10.2539H22.3125V9.52734C22.3125 8.94141 22.1602 8.47266 21.8555 8.12109C21.5586 7.76953 21.0859 7.59375 20.4375 7.59375C19.8672 7.59375 19.418 7.73047 19.0898 8.00391C18.7695 8.27734 18.6094 8.65234 18.6094 9.12891H15.2227C15.2227 8.39453 15.4492 7.71484 15.9023 7.08984C16.3555 6.46484 16.9961 5.97656 17.8242 5.625C18.6523 5.26562 19.582 5.08594 20.6133 5.08594C22.1758 5.08594 23.4141 5.48047 24.3281 6.26953C25.25 7.05078 25.7109 8.15234 25.7109 9.57422V15.0703C25.7188 16.2734 25.8867 17.1836 26.2148 17.8008V18H22.793ZM19.9922 15.6445C20.4922 15.6445 20.9531 15.5352 21.375 15.3164C21.7969 15.0898 22.1094 14.7891 22.3125 14.4141V12.2344H21.0469C19.3516 12.2344 18.4492 12.8203 18.3398 13.9922L18.3281 14.1914C18.3281 14.6133 18.4766 14.9609 18.7734 15.2344C19.0703 15.5078 19.4766 15.6445 19.9922 15.6445ZM32.8594 13.207L35.2031 5.32031H38.8359L33.7383 19.9688L33.457 20.6367C32.6992 22.293 31.4492 23.1211 29.707 23.1211C29.2148 23.1211 28.7148 23.0469 28.207 22.8984V20.332L28.7227 20.3438C29.3633 20.3438 29.8398 20.2461 30.1523 20.0508C30.4727 19.8555 30.7227 19.5312 30.9023 19.0781L31.3008 18.0352L26.8594 5.32031H30.5039L32.8594 13.207ZM43.3477 5.32031L43.4531 6.73828C44.3516 5.63672 45.5664 5.08594 47.0977 5.08594C48.7305 5.08594 49.8516 5.73047 50.4609 7.01953C51.3516 5.73047 52.6211 5.08594 54.2695 5.08594C55.6445 5.08594 56.668 5.48828 57.3398 6.29297C58.0117 7.08984 58.3477 8.29297 58.3477 9.90234V18H54.9492V9.91406C54.9492 9.19531 54.8086 8.67188 54.5273 8.34375C54.2461 8.00781 53.75 7.83984 53.0391 7.83984C52.0234 7.83984 51.3203 8.32422 50.9297 9.29297L50.9414 18H47.5547V9.92578C47.5547 9.19141 47.4102 8.66016 47.1211 8.33203C46.832 8.00391 46.3398 7.83984 45.6445 7.83984C44.6836 7.83984 43.9883 8.23828 43.5586 9.03516V18H40.1719V5.32031H43.3477ZM66.7969 18.2344C64.9375 18.2344 63.4219 17.6641 62.25 16.5234C61.0859 15.3828 60.5039 13.8633 60.5039 11.9648V11.6367C60.5039 10.3633 60.75 9.22656 61.2422 8.22656C61.7344 7.21875 62.4297 6.44531 63.3281 5.90625C64.2344 5.35938 65.2656 5.08594 66.4219 5.08594C68.1562 5.08594 69.5195 5.63281 70.5117 6.72656C71.5117 7.82031 72.0117 9.37109 72.0117 11.3789V12.7617H63.9375C64.0469 13.5898 64.375 14.2539 64.9219 14.7539C65.4766 15.2539 66.1758 15.5039 67.0195 15.5039C68.3242 15.5039 69.3438 15.0312 70.0781 14.0859L71.7422 15.9492C71.2344 16.668 70.5469 17.2305 69.6797 17.6367C68.8125 18.0352 67.8516 18.2344 66.7969 18.2344ZM66.4102 7.82812C65.7383 7.82812 65.1914 8.05469 64.7695 8.50781C64.3555 8.96094 64.0898 9.60938 63.9727 10.4531H68.6836V10.1836C68.668 9.43359 68.4648 8.85547 68.0742 8.44922C67.6836 8.03516 67.1289 7.82812 66.4102 7.82812ZM77.0625 5.32031L77.168 6.78516C78.0742 5.65234 79.2891 5.08594 80.8125 5.08594C82.1562 5.08594 83.1562 5.48047 83.8125 6.26953C84.4688 7.05859 84.8047 8.23828 84.8203 9.80859V18H81.4336V9.89062C81.4336 9.17188 81.2773 8.65234 80.9648 8.33203C80.6523 8.00391 80.1328 7.83984 79.4062 7.83984C78.4531 7.83984 77.7383 8.24609 77.2617 9.05859V18H73.875V5.32031H77.0625ZM91.4531 2.20312V5.32031H93.6211V7.80469H91.4531V14.1328C91.4531 14.6016 91.543 14.9375 91.7227 15.1406C91.9023 15.3438 92.2461 15.4453 92.7539 15.4453C93.1289 15.4453 93.4609 15.418 93.75 15.3633V17.9297C93.0859 18.1328 92.4023 18.2344 91.6992 18.2344C89.3242 18.2344 88.1133 17.0352 88.0664 14.6367V7.80469H86.2148V5.32031H88.0664V2.20312H91.4531Z" fill="white"/>
</svg>
