<svg width="11" height="10" viewBox="0 0 11 10" fill="none" xmlns="http://www.w3.org/2000/svg">
<path d="M10.4962 1.90375C10.5656 1.77542 10.6227 1.64087 10.6669 1.50187C10.6873 1.4374 10.6877 1.36823 10.6681 1.30352C10.6484 1.2388 10.6095 1.18157 10.5567 1.13939C10.5038 1.09721 10.4393 1.07206 10.3719 1.06726C10.3044 1.06246 10.2371 1.07823 10.1787 1.1125C9.85849 1.30275 9.51181 1.4445 9.15 1.53312C8.71079 1.13673 8.14038 0.916983 7.54875 0.916249C7.22732 0.916496 6.90925 0.981644 6.61361 1.10779C6.31797 1.23393 6.05085 1.41847 5.82825 1.65035C5.60565 1.88222 5.43217 2.15666 5.3182 2.4572C5.20423 2.75774 5.15212 3.07821 5.165 3.39937C3.75938 3.22242 2.47583 2.51115 1.58062 1.41312C1.54632 1.37153 1.50249 1.33882 1.45284 1.31779C1.4032 1.29675 1.34921 1.28801 1.29547 1.29231C1.24172 1.2966 1.18981 1.3138 1.14414 1.34245C1.09846 1.37111 1.06038 1.41036 1.03312 1.45687C0.828136 1.8087 0.716718 2.20719 0.709497 2.61431C0.702276 3.02144 0.799492 3.42362 0.991871 3.7825C0.944689 3.79046 0.89936 3.80698 0.858121 3.83125C0.807587 3.86347 0.765982 3.9079 0.737145 3.96044C0.708308 4.01298 0.693168 4.07194 0.693121 4.13187C0.693121 4.84125 1.00875 5.4925 1.5175 5.935L1.49562 5.95687C1.45721 6.00032 1.43079 6.05303 1.41895 6.1098C1.40712 6.16657 1.41028 6.22545 1.42812 6.28062C1.53421 6.61158 1.71134 6.91535 1.94712 7.17067C2.18291 7.42599 2.47164 7.6267 2.79312 7.75875C2.13286 8.08084 1.39397 8.20645 0.664371 8.12062C0.589374 8.11298 0.51396 8.13043 0.449944 8.17024C0.385929 8.21005 0.336928 8.26998 0.310621 8.34062C0.285357 8.41179 0.284883 8.48941 0.309275 8.56089C0.333667 8.63236 0.381494 8.6935 0.444996 8.73437C1.43688 9.37097 2.59078 9.70918 3.76937 9.70875C7.63187 9.70875 9.94062 6.57125 9.94062 3.53812L9.94 3.43562C10.3143 3.14338 10.6395 2.79312 10.9031 2.39812C10.943 2.33841 10.9627 2.26743 10.9591 2.19569C10.9555 2.12394 10.929 2.05526 10.8833 1.99979C10.8377 1.94433 10.7754 1.90504 10.7057 1.88774C10.636 1.87045 10.5625 1.87606 10.4962 1.90375ZM9.40562 3.00062C9.36027 3.03324 9.32381 3.07669 9.29957 3.12702C9.27533 3.17735 9.26409 3.23296 9.26687 3.28875C9.27062 3.37125 9.2725 3.455 9.2725 3.5375C9.2725 6.2425 7.21437 9.04062 3.77 9.04062C3.15569 9.04091 2.54571 8.9378 1.96562 8.73562C2.66037 8.60248 3.31302 8.30456 3.86875 7.86687C3.92284 7.82422 3.96244 7.7659 3.98214 7.69988C4.00183 7.63387 4.00065 7.56338 3.97877 7.49806C3.95688 7.43274 3.91535 7.37578 3.85986 7.33496C3.80437 7.29413 3.73762 7.27145 3.66875 7.27C3.39926 7.26485 3.13476 7.19644 2.89657 7.07029C2.65838 6.94414 2.45317 6.76378 2.2975 6.54375C2.45562 6.53312 2.61062 6.50687 2.76125 6.46625C2.83415 6.44674 2.89828 6.4031 2.94319 6.34245C2.98809 6.2818 3.01112 6.20772 3.00851 6.1323C3.0059 6.05688 2.9778 5.98457 2.92881 5.92717C2.87982 5.86977 2.81282 5.83067 2.73875 5.81625C2.43439 5.75434 2.15258 5.61084 1.92349 5.40112C1.69439 5.1914 1.52662 4.92334 1.43812 4.62562C1.60437 4.6675 1.775 4.69187 1.94562 4.6975C2.0925 4.69687 2.22875 4.60687 2.27437 4.46562C2.32 4.32437 2.26625 4.16875 2.14187 4.08625C1.84779 3.89032 1.62136 3.60838 1.4935 3.27895C1.36565 2.94952 1.34259 2.58865 1.4275 2.24562C2.51314 3.35957 3.97909 4.02291 5.5325 4.10312C5.6425 4.10375 5.73875 4.06437 5.80562 3.98375C5.8725 3.90312 5.89812 3.79625 5.87437 3.69375C5.78889 3.32562 5.82712 2.93959 5.98315 2.59538C6.13918 2.25117 6.40431 1.96799 6.7375 1.78965C7.0707 1.61131 7.45338 1.54776 7.82633 1.60883C8.19929 1.66991 8.54171 1.8522 8.80062 2.1275C8.83942 2.1689 8.88813 2.19974 8.94214 2.21713C8.99615 2.23451 9.0537 2.23787 9.10937 2.22687C9.2125 2.20625 9.31437 2.1825 9.415 2.155C9.36963 2.18896 9.32248 2.22046 9.27375 2.24937C9.20893 2.28907 9.15958 2.34967 9.13382 2.42117C9.10806 2.49268 9.10743 2.57083 9.13203 2.64274C9.15663 2.71465 9.205 2.77604 9.26916 2.81678C9.33332 2.85752 9.40945 2.87519 9.485 2.86687L9.59875 2.8525C9.53611 2.9041 9.47169 2.9535 9.40562 3.00062Z" fill="white"/>
</svg>
