<svg width="141" height="136" viewBox="0 0 141 136" fill="none" xmlns="http://www.w3.org/2000/svg">
<rect width="141" height="136" fill="#2AF509"/>
<path fill-rule="evenodd" clip-rule="evenodd" d="M70.5 119C99.7017 119 123.375 96.1662 123.375 68C123.375 39.8338 99.7017 17 70.5 17C41.2983 17 17.625 39.8338 17.625 68C17.625 96.1662 41.2983 119 70.5 119ZM70.5 124.667C102.948 124.667 129.25 99.297 129.25 68C129.25 36.703 102.948 11.3333 70.5 11.3333C38.0524 11.3333 11.75 36.703 11.75 68C11.75 99.297 38.0524 124.667 70.5 124.667Z" fill="black"/>
<path d="M35.25 100.952C35.25 98.0249 37.5178 95.5514 40.5375 95.2284C63.2003 92.8087 77.9025 93.0269 100.515 95.2822C101.645 95.3966 102.715 95.8257 103.595 96.517C104.476 97.2084 105.129 98.1322 105.474 99.1755C105.819 100.219 105.842 101.337 105.539 102.392C105.237 103.448 104.622 104.395 103.77 105.12C77.0829 127.557 61.8314 127.248 37.13 105.142C35.9256 104.066 35.25 102.536 35.25 100.955V100.952Z" fill="black"/>
<path fill-rule="evenodd" clip-rule="evenodd" d="M100.213 98.0985C77.7791 95.8602 63.2885 95.6505 40.8577 98.0446C39.3478 98.2061 38.1875 99.45 38.1875 100.954C38.1875 101.765 38.5371 102.533 39.1275 103.065C51.371 114.019 60.6476 118.969 69.7157 119C78.8161 119.031 88.5921 114.121 101.84 102.986C102.261 102.625 102.564 102.153 102.712 101.629C102.861 101.105 102.848 100.55 102.675 100.033C102.503 99.5152 102.179 99.0572 101.741 98.7144C101.304 98.3715 100.773 98.1585 100.213 98.1013V98.0985ZM40.2144 92.412C63.1151 89.9668 78.0318 90.1878 100.821 92.463C102.52 92.634 104.13 93.2791 105.454 94.3192C106.779 95.3593 107.76 96.7493 108.278 98.3191C108.796 99.889 108.829 101.57 108.371 103.158C107.914 104.745 106.987 106.169 105.703 107.256C92.264 118.555 81.0721 124.709 69.6981 124.667C58.2918 124.627 47.5934 118.368 35.1355 107.219C34.2435 106.418 33.5324 105.447 33.0467 104.369C32.561 103.291 32.3111 102.127 32.3125 100.952C32.3082 98.8392 33.1121 96.7995 34.5702 95.2232C36.0282 93.6469 38.038 92.645 40.2144 92.4092V92.412Z" fill="black"/>
<path d="M94 56.6667C94 62.6782 91.5241 68.4436 87.117 72.6944C82.7099 76.9452 76.7326 79.3333 70.5 79.3333C64.2674 79.3333 58.2901 76.9452 53.883 72.6944C49.4759 68.4436 47 62.6782 47 56.6667C47 50.6551 49.4759 44.8897 53.883 40.6389C58.2901 36.3881 64.2674 34 70.5 34C76.7326 34 82.7099 36.3881 87.117 40.6389C91.5241 44.8897 94 50.6551 94 56.6667Z" fill="black"/>
<path fill-rule="evenodd" clip-rule="evenodd" d="M70.5 73.6667C75.1744 73.6667 79.6574 71.8756 82.9628 68.6875C86.2681 65.4994 88.125 61.1753 88.125 56.6667C88.125 52.158 86.2681 47.834 82.9628 44.6459C79.6574 41.4577 75.1744 39.6667 70.5 39.6667C65.8256 39.6667 61.3426 41.4577 58.0372 44.6459C54.7319 47.834 52.875 52.158 52.875 56.6667C52.875 61.1753 54.7319 65.4994 58.0372 68.6875C61.3426 71.8756 65.8256 73.6667 70.5 73.6667ZM70.5 79.3333C76.7326 79.3333 82.7099 76.9452 87.117 72.6944C91.5241 68.4436 94 62.6782 94 56.6667C94 50.6551 91.5241 44.8897 87.117 40.6389C82.7099 36.3881 76.7326 34 70.5 34C64.2674 34 58.2901 36.3881 53.883 40.6389C49.4759 44.8897 47 50.6551 47 56.6667C47 62.6782 49.4759 68.4436 53.883 72.6944C58.2901 76.9452 64.2674 79.3333 70.5 79.3333Z" fill="black"/>
</svg>
