<svg width="25" height="20" viewBox="0 0 25 20" fill="none" xmlns="http://www.w3.org/2000/svg">
<path d="M7.5 10C9.91797 10 11.875 7.76339 11.875 5C11.875 2.23661 9.91797 0 7.5 0C5.08203 0 3.125 2.23661 3.125 5C3.125 7.76339 5.08203 10 7.5 10ZM10.5 11.4286H10.1758C9.36328 11.875 8.46094 12.1429 7.5 12.1429C6.53906 12.1429 5.64062 11.875 4.82422 11.4286H4.5C2.01562 11.4286 0 13.7321 0 16.5714V17.8571C0 19.0402 0.839844 20 1.875 20H13.125C14.1602 20 15 19.0402 15 17.8571V16.5714C15 13.7321 12.9844 11.4286 10.5 11.4286ZM18.75 10C20.8203 10 22.5 8.08036 22.5 5.71429C22.5 3.34821 20.8203 1.42857 18.75 1.42857C16.6797 1.42857 15 3.34821 15 5.71429C15 8.08036 16.6797 10 18.75 10ZM20.625 11.4286H20.4766C19.9336 11.6429 19.3594 11.7857 18.75 11.7857C18.1406 11.7857 17.5664 11.6429 17.0234 11.4286H16.875C16.0781 11.4286 15.3437 11.692 14.6992 12.1161C15.6523 13.2902 16.25 14.8482 16.25 16.5714V18.2857C16.25 18.3839 16.2305 18.4777 16.2266 18.5714H23.125C24.1602 18.5714 25 17.6116 25 16.4286C25 13.6652 23.043 11.4286 20.625 11.4286V11.4286Z" fill="black"/>
</svg>
